Language: English
Genre:Fantasy | Horror | Thriller
IMDB:http://www.imdb.com/title/tt1179056/
Source:DVD

General
Complete name :A.Nightmare.on.Elm.Street.2010.DvDRip.XviD.Ac3.Feel-Free
Format : AVI
Format/Info : Audio Video Interleave
File size : 1.43 GiB
Duration : 1h 35mn
Overall bit rate : 2 147 Kbps
Video #0
ID : 0
Format : MPEG-4 Visual
Format profile : AdvancedSimple@L5
Format settings, BVOP : Yes
Format settings, QPel : No
Format settings, GMC : No warppoints
Format settings, Matrix : Default (H.263)
Muxing mode : Packed bitstream
Codec ID : XVID
Codec ID/Hint : XviD
Duration : 1h 35mn
Bit rate : 1 689 Kbps
Width : 688 pixels
Height : 288 pixels
Display aspect ratio : 2.35:1
Frame rate : 23.976 fps
Resolution : 24 bits
Colorimetry : 4:2:0
Scan type : Progressive
Bits/(Pixel*Frame) : 0.356
Stream size : 1.13 GiB (79%)
Writing library : XviD 1.2.1 (UTC 2008-12-04)
Audio #1
ID : 1
Format : AC-3
Format/Info : Audio Coding 3
Codec ID : 2000
Duration : 1h 35mn
Bit rate mode : Constant
Bit rate : 448 Kbps
Channel(s) : 6 channels
Channel positions : Front: L C R, Surround: L R, LFE
Sampling rate : 48.0 KHz
Stream size : 306 MiB (21%)
Alignment : Split accross interleaves
Interleave, duration : 42 ms (1.00 video frame)
Interleave, preload duration : 500 ms

Plot:
A re-imagining of the horror icon Freddy Krueger, a serial-killer who wields a glove with four blades embedded in the fingers and kills people in their dreams, resulting in their real death in reality










================================== 
http://thepiratebay.org/user/hiest
==================================











Screenshots:
 
http://www.starshare.ro/bitbucket/A.Nightmare.on.Elm.Street.2010.DvDRip.XviD.Ac3.Feel-Free.avi_snapshot_00.07.20_%5B2010.09.25_11.54.25%5D.jpg
 
http://www.starshare.ro/bitbucket/A.Nightmare.on.Elm.Street.2010.DvDRip.XviD.Ac3.Feel-Free.avi_snapshot_00.12.07_%5B2010.09.25_11.54.31%5D.jpg
 
http://www.starshare.ro/bitbucket/A.Nightmare.on.Elm.Street.2010.DvDRip.XviD.Ac3.Feel-Free.avi_snapshot_00.40.12_%5B2010.09.25_11.55.46%5D.jpg
 
http://www.starshare.ro/bitbucket/A.Nightmare.on.Elm.Street.2010.DvDRip.XviD.Ac3.Feel-Free.avi_snapshot_00.12.24_%5B2010.09.25_11.54.37%5D.jpg
 
http://www.starshare.ro/bitbucket/A.Nightmare.on.Elm.Street.2010.DvDRip.XviD.Ac3.Feel-Free.avi_snapshot_00.20.18_%5B2010.09.25_11.55.54%5D.jpg